<svg width="232" height="180" viewBox="0 0 232 180" fill="none" xmlns="http://www.w3.org/2000/svg">
<g id="Group 5">
<circle id="Ellipse 1" cx="6" cy="6" r="6" fill="#E8EDF3"/>
<circle id="Ellipse 13" cx="6" cy="30" r="6" fill="#E8EDF3"/>
<circle id="Ellipse 25" cx="6" cy="54" r="6" fill="#E8EDF3"/>
<circle id="Ellipse 37" cx="6" cy="78" r="6" fill="#E8EDF3"/>
<circle id="Ellipse 49" cx="6" cy="102" r="6" fill="#E8EDF3"/>
<circle id="Ellipse 61" cx="6" cy="126" r="6" fill="#E8EDF3"/>
<circle id="Ellipse 73" cx="6" cy="150" r="6" fill="#E8EDF3"/>
<circle id="Ellipse 82" cx="6" cy="174" r="6" fill="#E8EDF3"/>
<circle id="Ellipse 2" cx="26" cy="6" r="6" fill="#E8EDF3"/>
<circle id="Ellipse 14" cx="26" cy="30" r="6" fill="#E8EDF3"/>
<circle id="Ellipse 26" cx="26" cy="54" r="6" fill="#E8EDF3"/>
<circle id="Ellipse 38" cx="26" cy="78" r="6" fill="#E8EDF3"/>
<circle id="Ellipse 50" cx="26" cy="102" r="6" fill="#E8EDF3"/>
<circle id="Ellipse 62" cx="26" cy="126" r="6" fill="#E8EDF3"/>
<circle id="Ellipse 74" cx="26" cy="150" r="6" fill="#E8EDF3"/>
<circle id="Ellipse 83" cx="26" cy="174" r="6" fill="#E8EDF3"/>
<circle id="Ellipse 3" cx="46" cy="6" r="6" fill="#E8EDF3"/>
<circle id="Ellipse 15" cx="46" cy="30" r="6" fill="#E8EDF3"/>
<circle id="Ellipse 27" cx="46" cy="54" r="6" fill="#E8EDF3"/>
<circle id="Ellipse 39" cx="46" cy="78" r="6" fill="#E8EDF3"/>
<circle id="Ellipse 51" cx="46" cy="102" r="6" fill="#E8EDF3"/>
<circle id="Ellipse 63" cx="46" cy="126" r="6" fill="#E8EDF3"/>
<circle id="Ellipse 75" cx="46" cy="150" r="6" fill="#E8EDF3"/>
<circle id="Ellipse 84" cx="46" cy="174" r="6" fill="#E8EDF3"/>
<circle id="Ellipse 4" cx="66" cy="6" r="6" fill="#E8EDF3"/>
<circle id="Ellipse 16" cx="66" cy="30" r="6" fill="#E8EDF3"/>
<circle id="Ellipse 28" cx="66" cy="54" r="6" fill="#E8EDF3"/>
<circle id="Ellipse 40" cx="66" cy="78" r="6" fill="#E8EDF3"/>
<circle id="Ellipse 52" cx="66" cy="102" r="6" fill="#E8EDF3"/>
<circle id="Ellipse 64" cx="66" cy="126" r="6" fill="#E8EDF3"/>
<circle id="Ellipse 76" cx="66" cy="150" r="6" fill="#E8EDF3"/>
<circle id="Ellipse 85" cx="66" cy="174" r="6" fill="#E8EDF3"/>
<circle id="Ellipse 5" cx="86" cy="6" r="6" fill="#E8EDF3"/>
<circle id="Ellipse 17" cx="86" cy="30" r="6" fill="#E8EDF3"/>
<circle id="Ellipse 29" cx="86" cy="54" r="6" fill="#E8EDF3"/>
<circle id="Ellipse 41" cx="86" cy="78" r="6" fill="#E8EDF3"/>
<circle id="Ellipse 53" cx="86" cy="102" r="6" fill="#E8EDF3"/>
<circle id="Ellipse 65" cx="86" cy="126" r="6" fill="#E8EDF3"/>
<circle id="Ellipse 77" cx="86" cy="150" r="6" fill="#E8EDF3"/>
<circle id="Ellipse 86" cx="86" cy="174" r="6" fill="#E8EDF3"/>
<circle id="Ellipse 6" cx="106" cy="6" r="6" fill="#E8EDF3"/>
<circle id="Ellipse 18" cx="106" cy="30" r="6" fill="#E8EDF3"/>
<circle id="Ellipse 30" cx="106" cy="54" r="6" fill="#E8EDF3"/>
<circle id="Ellipse 42" cx="106" cy="78" r="6" fill="#E8EDF3"/>
<circle id="Ellipse 54" cx="106" cy="102" r="6" fill="#E8EDF3"/>
<circle id="Ellipse 66" cx="106" cy="126" r="6" fill="#E8EDF3"/>
<circle id="Ellipse 78" cx="106" cy="150" r="6" fill="#E8EDF3"/>
<circle id="Ellipse 87" cx="106" cy="174" r="6" fill="#E8EDF3"/>
<circle id="Ellipse 7" cx="126" cy="6" r="6" fill="#E8EDF3"/>
<circle id="Ellipse 19" cx="126" cy="30" r="6" fill="#E8EDF3"/>
<circle id="Ellipse 31" cx="126" cy="54" r="6" fill="#E8EDF3"/>
<circle id="Ellipse 43" cx="126" cy="78" r="6" fill="#E8EDF3"/>
<circle id="Ellipse 55" cx="126" cy="102" r="6" fill="#E8EDF3"/>
<circle id="Ellipse 67" cx="126" cy="126" r="6" fill="#E8EDF3"/>
<circle id="Ellipse 79" cx="126" cy="150" r="6" fill="#E8EDF3"/>
<circle id="Ellipse 88" cx="126" cy="174" r="6" fill="#E8EDF3"/>
<circle id="Ellipse 8" cx="146" cy="6" r="6" fill="#E8EDF3"/>
<circle id="Ellipse 20" cx="146" cy="30" r="6" fill="#E8EDF3"/>
<circle id="Ellipse 32" cx="146" cy="54" r="6" fill="#E8EDF3"/>
<circle id="Ellipse 44" cx="146" cy="78" r="6" fill="#E8EDF3"/>
<circle id="Ellipse 56" cx="146" cy="102" r="6" fill="#E8EDF3"/>
<circle id="Ellipse 68" cx="146" cy="126" r="6" fill="#E8EDF3"/>
<circle id="Ellipse 80" cx="146" cy="150" r="6" fill="#E8EDF3"/>
<circle id="Ellipse 89" cx="146" cy="174" r="6" fill="#E8EDF3"/>
<circle id="Ellipse 9" cx="166" cy="6" r="6" fill="#E8EDF3"/>
<circle id="Ellipse 21" cx="166" cy="30" r="6" fill="#E8EDF3"/>
<circle id="Ellipse 33" cx="166" cy="54" r="6" fill="#E8EDF3"/>
<circle id="Ellipse 45" cx="166" cy="78" r="6" fill="#E8EDF3"/>
<circle id="Ellipse 57" cx="166" cy="102" r="6" fill="#E8EDF3"/>
<circle id="Ellipse 69" cx="166" cy="126" r="6" fill="#E8EDF3"/>
<circle id="Ellipse 81" cx="166" cy="150" r="6" fill="#E8EDF3"/>
<circle id="Ellipse 90" cx="166" cy="174" r="6" fill="#E8EDF3"/>
<circle id="Ellipse 10" cx="186" cy="6" r="6" fill="#E8EDF3"/>
<circle id="Ellipse 22" cx="186" cy="30" r="6" fill="#E8EDF3"/>
<circle id="Ellipse 34" cx="186" cy="54" r="6" fill="#E8EDF3"/>
<circle id="Ellipse 46" cx="186" cy="78" r="6" fill="#E8EDF3"/>
<circle id="Ellipse 58" cx="186" cy="102" r="6" fill="#E8EDF3"/>
<circle id="Ellipse 11" cx="206" cy="6" r="6" fill="#E8EDF3"/>
<circle id="Ellipse 23" cx="206" cy="30" r="6" fill="#E8EDF3"/>
<circle id="Ellipse 35" cx="206" cy="54" r="6" fill="#E8EDF3"/>
<circle id="Ellipse 47" cx="206" cy="78" r="6" fill="#E8EDF3"/>
<circle id="Ellipse 59" cx="206" cy="102" r="6" fill="#E8EDF3"/>
<circle id="Ellipse 12" cx="226" cy="6" r="6" fill="#E8EDF3"/>
<circle id="Ellipse 24" cx="226" cy="30" r="6" fill="#E8EDF3"/>
<circle id="Ellipse 36" cx="226" cy="54" r="6" fill="#E8EDF3"/>
<circle id="Ellipse 48" cx="226" cy="78" r="6" fill="#E8EDF3"/>
<circle id="Ellipse 60" cx="226" cy="102" r="6" fill="#E8EDF3"/>
</g>
</svg>
